<svg width="120" height="160" viewBox="0 0 120 160" fill="none" xmlns="http://www.w3.org/2000/svg" aria-label="Tiketes ticket mark">
  <defs>
    <linearGradient id="tk-mark-grad" x1="0" y1="0" x2="120" y2="160" gradientUnits="userSpaceOnUse">
      <stop offset="0" stop-color="#6B4BFF"></stop>
      <stop offset="1" stop-color="#3B1FC9"></stop>
    </linearGradient>
    <linearGradient id="tk-fold-grad" x1="80" y1="120" x2="120" y2="160" gradientUnits="userSpaceOnUse">
      <stop offset="0" stop-color="#FFFFFF" stop-opacity="0.95"></stop>
      <stop offset="1" stop-color="#E6DCFF" stop-opacity="0.85"></stop>
    </linearGradient>
  </defs>
  
  <path d="M16 6&#xA;           a10 10 0 0 1 10 -2&#xA;           h12 a6 6 0 0 0 12 0&#xA;           h12 a6 6 0 0 0 12 0&#xA;           h12 a6 6 0 0 0 12 0&#xA;           h12 a10 10 0 0 1 10 10&#xA;           v100&#xA;           a6 6 0 0 0 -6 6&#xA;           a6 6 0 0 0 6 6&#xA;           v0&#xA;           L96 152&#xA;           L20 152&#xA;           a10 10 0 0 1 -10 -10&#xA;           v-12 a6 6 0 0 0 0 -12&#xA;           v-12 a6 6 0 0 0 0 -12&#xA;           v-12 a6 6 0 0 0 0 -12&#xA;           v-12 a6 6 0 0 0 0 -12&#xA;           V16&#xA;           a10 10 0 0 1 6 -10 Z" fill="url(#tk-mark-grad)"></path>
  
  <path d="M96 152 L114 134 L114 152 Z" fill="url(#tk-fold-grad)"></path>
  <path d="M96 152 L114 134" stroke="#2A12A8" stroke-width="0.6" opacity="0.4"></path>
  
  <g fill="#FFFFFF" opacity="0.85">
    <rect x="34" y="128" width="10" height="3" rx="1.5"></rect>
    <rect x="50" y="128" width="10" height="3" rx="1.5"></rect>
    <rect x="66" y="128" width="10" height="3" rx="1.5"></rect>
  </g>
  
  <path d="M30 38 H94 a4 4 0 0 1 4 4 V58 a4 4 0 0 1 -4 4 H72 V108 a4 4 0 0 1 -4 4 H56 a4 4 0 0 1 -4 -4 V62 H30 a4 4 0 0 1 -4 -4 V42 a4 4 0 0 1 4 -4 Z" fill="#FFFFFF"></path>
</svg>