<svg width="120" height="160" viewBox="0 0 120 160" fill="none" xmlns="http://www.w3.org/2000/svg" aria-label="Tikeles ticket mark monochrome">
  <path d="M16 6 a10 10 0 0 1 10 -2 h12 a6 6 0 0 0 12 0 h12 a6 6 0 0 0 12 0 h12 a6 6 0 0 0 12 0 h12 a10 10 0 0 1 10 10 v100 a6 6 0 0 0 -6 6 a6 6 0 0 0 6 6 v0 L96 152 L20 152 a10 10 0 0 1 -10 -10 v-12 a6 6 0 0 0 0 -12 v-12 a6 6 0 0 0 0 -12 v-12 a6 6 0 0 0 0 -12 v-12 a6 6 0 0 0 0 -12 V16 a10 10 0 0 1 6 -10 Z" fill="currentColor"></path>
  <path d="M96 152 L114 134 L114 152 Z" fill="currentColor" opacity="0.6"></path>
  <g fill="#FFFFFF" opacity="0.9">
    <rect x="34" y="128" width="10" height="3" rx="1.5"></rect>
    <rect x="50" y="128" width="10" height="3" rx="1.5"></rect>
    <rect x="66" y="128" width="10" height="3" rx="1.5"></rect>
  </g>
  <path d="M30 38 H94 a4 4 0 0 1 4 4 V58 a4 4 0 0 1 -4 4 H72 V108 a4 4 0 0 1 -4 4 H56 a4 4 0 0 1 -4 -4 V62 H30 a4 4 0 0 1 -4 -4 V42 a4 4 0 0 1 4 -4 Z" fill="#FFFFFF"></path>
</svg>