<svg width="320" height="80" viewBox="0 0 320 80" fill="none" xmlns="http://www.w3.org/2000/svg" aria-label="Tiketes wordmark">
  <defs>
    <linearGradient id="wm-grad" x1="0" y1="0" x2="60" y2="80" gradientUnits="userSpaceOnUse">
      <stop offset="0" stop-color="#6B4BFF"></stop>
      <stop offset="1" stop-color="#3B1FC9"></stop>
    </linearGradient>
  </defs>
  <g transform="translate(0,6)">
    <path d="M8 4 a6 6 0 0 1 6 -2 h6 a3 3 0 0 0 6 0 h6 a3 3 0 0 0 6 0 h6 a3 3 0 0 0 6 0 h6 a6 6 0 0 1 6 6 v52 a3 3 0 0 0 -3 3 a3 3 0 0 0 3 3 L48 74 L12 74 a6 6 0 0 1 -6 -6 v-6 a3 3 0 0 0 0 -6 v-6 a3 3 0 0 0 0 -6 v-6 a3 3 0 0 0 0 -6 v-6 a3 3 0 0 0 0 -6 V10 a6 6 0 0 1 2 -6 Z" fill="url(#wm-grad)"></path>
    <path d="M48 74 L57 64 L57 74 Z" fill="#E6DCFF" opacity="0.95"></path>
    <g fill="#FFFFFF" opacity="0.85">
      <rect x="17" y="62" width="5" height="1.6" rx="0.8"></rect>
      <rect x="25" y="62" width="5" height="1.6" rx="0.8"></rect>
      <rect x="33" y="62" width="5" height="1.6" rx="0.8"></rect>
    </g>
    <path d="M15 20 H47 a2 2 0 0 1 2 2 V30 a2 2 0 0 1 -2 2 H36 V54 a2 2 0 0 1 -2 2 H28 a2 2 0 0 1 -2 -2 V32 H15 a2 2 0 0 1 -2 -2 V22 a2 2 0 0 1 2 -2 Z" fill="#FFFFFF"></path>
  </g>
  <text x="78" y="58" font-family="Sora, system-ui, sans-serif" font-weight="700" font-size="48" letter-spacing="-1.5" fill="#0A0B1F">Tiketes</text>
</svg>